<?xml version="1.0" encoding="utf-8"?>
<!-- Generator: Adobe Illustrator 25.0.1, SVG Export Plug-In . SVG Version: 6.00 Build 0)  -->
<svg version="1.1" id="レイヤー_1" xmlns="http://www.w3.org/2000/svg" xmlns:xlink="http://www.w3.org/1999/xlink" x="0px"
	 y="0px" viewBox="0 0 16 16" style="enable-background:new 0 0 16 16;" xml:space="preserve">
<style type="text/css">
	.st0{fill:#E09313;}
	.st1{fill:#FFFFFF;}
</style>
<g>
	<circle class="st0" cx="7.97" cy="8.03" r="7.97"/>
	<circle class="st1" cx="7.97" cy="8.08" r="7.39"/>
	<path class="st0" d="M2.23,11.91"/>
	<path class="st0" d="M2.23,11.91"/>
	<path class="st0" d="M0.79,3.01"/>
	<path class="st0" d="M0.44,12.52"/>
	<path class="st0" d="M15.6,3.67"/>
	<g>
		<polyline class="st0" points="8.41,3.63 7.89,3.63 8.42,4.17 		"/>
		<g>
			<g>
				<polygon class="st0" points="2.19,12.52 1.59,12.52 2.21,11.9 				"/>
				<g>
					<g>
						<g>
							<path class="st0" d="M2.19,3.63h1.73c1.12,0,1.87,0.05,2.26,0.15c0.39,0.1,1.23,1,1.28,1.29c0.05,0.29,0.08,0.85,0.08,1.69
								v3.11c0,0.8-0.04,1.33-0.11,1.6c-0.08,0.27-0.81,0.89-1.08,0.95c-0.27,0.06-0.69,0.09-1.24,0.09H2.19V3.63z M4.51,5.15V11
								c0,0,0.54-0.07,0.62-0.2c0.08-0.13,0.12-0.5,0.12-1.09V6.26c0-0.4-0.01-0.66-0.04-0.77c-0.03-0.11-0.08-0.2-0.18-0.25
								S4.76,5.15,4.51,5.15z"/>
						</g>
						<path class="st0" d="M13.73,3.63v8.89h-2.31V8.79h-0.69v3.73H8.41V3.63h2.31v3.18h0.69V3.63H13.73z"/>
					</g>
					<polyline class="st0" points="2.19,3.63 1.71,3.63 2.22,4.14 					"/>
				</g>
			</g>
			<polyline class="st0" points="8.41,12.52 7.89,12.52 8.45,11.95 			"/>
			<polygon class="st0" points="13.73,12.52 14.23,12.52 13.72,12.01 			"/>
		</g>
		<polygon class="st0" points="13.71,4.26 14.34,3.63 13.73,3.63 		"/>
	</g>
</g>
</svg>
